REM Ripping Tool: trurip

FILE "Kuusou Kagaku Sekai Gulliver Boy (1995)(Hudson)(JP)[AKA Nouvelle Fanpasia Gulliver Boy].img" BINARY
  TRACK 01 AUDIO
    INDEX 01 00:00:00
  TRACK 02 MODE1/2352
    INDEX 00 01:15:22
    INDEX 01 01:18:21
  TRACK 03 AUDIO
    INDEX 00 48:40:15
    INDEX 01 48:42:15
  TRACK 04 AUDIO
    INDEX 01 50:23:35
  TRACK 05 AUDIO
    INDEX 01 53:01:09
  TRACK 06 AUDIO
    INDEX 01 54:58:70
  TRACK 07 AUDIO
    INDEX 01 58:06:69
  TRACK 08 AUDIO
    INDEX 01 59:17:25
  TRACK 09 AUDIO
    INDEX 01 60:48:00
  TRACK 10 MODE1/2352
    INDEX 00 66:56:29
    INDEX 01 66:59:28

REM DISC HASHES
REM CRC32 : e0b6f92d
REM MD5   : ba5dd5fe2310050d9a5f3a1a010278b2
REM SHA1  : f4446ccb4349d055682325fe563f6852e6885a7a

REM Gap Append Method: Prev [crc32]
REM Trk 01: 1bfb9a66
REM Trk 02: ca458e47
REM Trk 03: 17bdea34
REM Trk 04: b5ebe1ab
REM Trk 05: d54a5779
REM Trk 06: 472dab04
REM Trk 07: f2121a8f
REM Trk 08: 9780337a
REM Trk 09: 35697e6a
REM Trk 10: 38c0f997

REM Gap Append Method: Prev [md5]
REM Trk 01: f431dec34abece22d06f5d00fa68ae18
REM Trk 02: b017a56f8fa745e62dece3b7fd310e0a
REM Trk 03: a28f684d7b0ed4d9ea48ea3eb91a5c68
REM Trk 04: de519b4ba9b0065e7291ad2ee8c0c1db
REM Trk 05: 6742fbac3ef1427ce35367f9b79d9851
REM Trk 06: 81802e24055347871f47a2b783faed40
REM Trk 07: 71f51a9cf3a0e9de0fab2867376a3ca1
REM Trk 08: beb579a977d82e3c5eaaddd4581a08a4
REM Trk 09: 5c4975887c12d0e73a6de6ec2382252a
REM Trk 10: 0c51fba3b05f050175b3998f5d4ff7e5

REM Gap Append Method: Prev [sha1]
REM Trk 01: 647d2df46f6638100779550a5fefa15e850b2033
REM Trk 02: b47fd42474e5e0026f1790a407c1a7512ee5cd18
REM Trk 03: 906283dd85038be4bf072b6b29194f4fd20b7d35
REM Trk 04: 4c4548a0a520c8524edd35b50940759eaefa7b93
REM Trk 05: 6f2d07601f89abdbcaed484d076cfcc3d379467c
REM Trk 06: 1b40aa3dff99d9b64ed3b766f4dc9d4c04b9cb1e
REM Trk 07: 49d658d9f4d82319b3066fc181b04aa96f61319f
REM Trk 08: 89022b510c258ec128f1ad9f852dd77e1e37ea5e
REM Trk 09: 560f47e3768d0bdcec5ee409d594f9a851a7cf40
REM Trk 10: 3e9af75950dfaf149047bcb0a78c74ece53f15ef

REM Gap Append Method: None [crc32]
REM Trk 01: 7254ca24
REM Trk 02: aa44c1e1
REM Trk 03: 17bdea34
REM Trk 04: b5ebe1ab
REM Trk 05: d54a5779
REM Trk 06: 472dab04
REM Trk 07: f2121a8f
REM Trk 08: 9780337a
REM Trk 09: 6684eb14
REM Trk 10: 38c0f997
REM Gap 02: b1a2821a
REM Gap 03: 7abe247f
REM Gap 10: 00136936

REM Gap Append Method: None [md5]
REM Trk 01: ffbdd6ab8436d362d944ad0e879cb991
REM Trk 02: 9877f27b38dab60595a50ce0e5b6be34
REM Trk 03: a28f684d7b0ed4d9ea48ea3eb91a5c68
REM Trk 04: de519b4ba9b0065e7291ad2ee8c0c1db
REM Trk 05: 6742fbac3ef1427ce35367f9b79d9851
REM Trk 06: 81802e24055347871f47a2b783faed40
REM Trk 07: 71f51a9cf3a0e9de0fab2867376a3ca1
REM Trk 08: beb579a977d82e3c5eaaddd4581a08a4
REM Trk 09: 5da14b68abd88bfc1b1d8b061f763be5
REM Trk 10: 0c51fba3b05f050175b3998f5d4ff7e5
REM Gap 02: ac0d8747c52f062705087fa3e8b34094
REM Gap 03: 9df204fbc98bb8965081cb30a89715fc
REM Gap 10: d81a45178d01b7900b9ad53bc7eb77c5

REM Gap Append Method: None [sha1]
REM Trk 01: 7c59c4b1598f8cb580078571618ce2d31ac8be84
REM Trk 02: d3da3bcb22e0cd860a5316693abeb7207d560d1c
REM Trk 03: 906283dd85038be4bf072b6b29194f4fd20b7d35
REM Trk 04: 4c4548a0a520c8524edd35b50940759eaefa7b93
REM Trk 05: 6f2d07601f89abdbcaed484d076cfcc3d379467c
REM Trk 06: 1b40aa3dff99d9b64ed3b766f4dc9d4c04b9cb1e
REM Trk 07: 49d658d9f4d82319b3066fc181b04aa96f61319f
REM Trk 08: 89022b510c258ec128f1ad9f852dd77e1e37ea5e
REM Trk 09: 5c3c946087e7290eec3149021801e96306902847
REM Trk 10: 3e9af75950dfaf149047bcb0a78c74ece53f15ef
REM Gap 02: 5b74daff90e7d3c12e660e969927133661c0a7a3
REM Gap 03: cbe29e0bd725ef1194f8c47619dd42078e841de2
REM Gap 10: d493ccd193dff28f4048ab68749b7ec6a23337bb

REM Gap Append Method: Next [crc32]
REM Trk 01: 7254ca24
REM Trk 02: fb5964df
REM Trk 03: 34e7174a
REM Trk 04: b5ebe1ab
REM Trk 05: d54a5779
REM Trk 06: 472dab04
REM Trk 07: f2121a8f
REM Trk 08: 9780337a
REM Trk 09: 6684eb14
REM Trk 10: 62373948

REM Gap Append Method: Next [md5]
REM Trk 01: ffbdd6ab8436d362d944ad0e879cb991
REM Trk 02: acf1af2262ccc1664540a8fc69734181
REM Trk 03: 54c2cb5a6b7f65d252df2269f38b0bff
REM Trk 04: de519b4ba9b0065e7291ad2ee8c0c1db
REM Trk 05: 6742fbac3ef1427ce35367f9b79d9851
REM Trk 06: 81802e24055347871f47a2b783faed40
REM Trk 07: 71f51a9cf3a0e9de0fab2867376a3ca1
REM Trk 08: beb579a977d82e3c5eaaddd4581a08a4
REM Trk 09: 5da14b68abd88bfc1b1d8b061f763be5
REM Trk 10: 6cc2e84cf91fd0df9543a8eb7725ebfe

REM Gap Append Method: Next [sha1]
REM Trk 01: 7c59c4b1598f8cb580078571618ce2d31ac8be84
REM Trk 02: eb6b3e5c864b06797c9e16f97f9f810e58f2b93c
REM Trk 03: 86bbc9e66daf7cc4c330233d1baea4b3ebef28af
REM Trk 04: 4c4548a0a520c8524edd35b50940759eaefa7b93
REM Trk 05: 6f2d07601f89abdbcaed484d076cfcc3d379467c
REM Trk 06: 1b40aa3dff99d9b64ed3b766f4dc9d4c04b9cb1e
REM Trk 07: 49d658d9f4d82319b3066fc181b04aa96f61319f
REM Trk 08: 89022b510c258ec128f1ad9f852dd77e1e37ea5e
REM Trk 09: 5c3c946087e7290eec3149021801e96306902847
REM Trk 10: 06d55df02fb698aa8a3c74101e74cf1555d843d1

